<?xml version="1.0" encoding="utf-8"?>
<!-- Generator: Adobe Illustrator 16.0.0, SVG Export Plug-In . SVG Version: 6.00 Build 0)  -->
<!DOCTYPE svg PUBLIC "-//W3C//DTD SVG 1.1//EN" "http://www.w3.org/Graphics/SVG/1.1/DTD/svg11.dtd">
<svg version="1.1" id="Layer_1" xmlns="http://www.w3.org/2000/svg" xmlns:xlink="http://www.w3.org/1999/xlink" x="0px" y="0px"
	 width="154px" height="50px" viewBox="0 0 154 50" enable-background="new 0 0 154 50" xml:space="preserve">
<g>
	<path fill="#E1271C" d="M86.939,1.958c0.088-0.001,0.175-0.002,0.265-0.003c3.699-0.038,3.699-0.038,5.285,0.485
		c0.075,0.024,0.15,0.048,0.228,0.074c1.39,0.472,2.659,1.23,3.737,2.426c0.088,0.094,0.088,0.094,0.177,0.189
		c1.227,1.401,1.763,3.407,2.036,5.377c0,0.787,0,1.575,0,2.386c-2.678,0-5.354,0-8.113,0c-0.062-1.012-0.122-2.024-0.185-3.067
		c-0.231-0.968-0.231-0.968-0.737-1.591c-0.546-0.224-1.165-0.205-1.706,0.021c-0.348,0.311-0.556,0.612-0.691,1.115
		c-0.009,0.321-0.013,0.64-0.012,0.961c-0.001,0.098-0.001,0.197-0.001,0.298c0,0.328,0,0.656,0,0.984c0,0.231,0,0.462,0,0.693
		c0,0.488,0,0.976,0.001,1.464c0,0.612,0,1.224-0.001,1.835c-0.002,2.25,0.001,4.501,0.037,6.751
		c0.003,0.187,0.006,0.374,0.008,0.56c0.003,0.254,0.008,0.509,0.013,0.763c0.003,0.142,0.005,0.284,0.008,0.43
		c0.043,0.4,0.122,0.618,0.315,0.939c0.495,0.427,1.067,0.574,1.66,0.455c0.31-0.157,0.31-0.157,0.553-0.341
		c0.062,0,0.122,0,0.185,0c0.026-0.082,0.054-0.164,0.081-0.249c0.096-0.296,0.192-0.592,0.288-0.888
		c0.03-1.237,0.061-2.474,0.092-3.749c2.708,0,5.416,0,8.206,0c0,2.396,0,2.396-0.104,3.082c-0.012,0.083-0.024,0.167-0.036,0.252
		c-0.36,2.285-1.283,4.347-2.828,5.728c-2.54,2.056-6.076,2.738-9.047,2.009c-1.481-0.398-2.89-1.073-4.213-1.98
		c-0.091-0.063-0.183-0.126-0.277-0.19c-1.527-1.125-2.767-2.851-3.223-5.001c-0.331-1.938-0.387-3.973-0.381-5.945
		c0-0.136,0-0.272,0-0.413c0.006-1.401,0.03-2.802,0.067-4.203c0.008-0.281,0.014-0.561,0.02-0.842
		c0.038-1.884,0.081-3.646,0.81-5.348c0.031-0.074,0.063-0.149,0.095-0.226c1.013-2.335,2.684-3.919,4.732-4.716
		C85.172,2.159,86.014,1.968,86.939,1.958z"/>
	<path fill="#E1271C" d="M67.135,1.985c2.677,0,5.355,0,8.113,0c0.015,5.586,0.015,5.586,0.018,7.93
		c0.002,1.617,0.005,3.234,0.01,4.852c0.004,1.178,0.006,2.356,0.007,3.534c0,0.624,0.001,1.247,0.004,1.87
		c0.002,0.587,0.003,1.175,0.003,1.762c0,0.215,0,0.43,0.002,0.645c0.014,2.299-0.476,3.978-1.796,5.652
		c-0.056,0.079-0.113,0.157-0.171,0.237c-1.66,2.216-4.271,2.776-6.611,2.935c-0.156,0.004-0.156,0.004-0.316,0.01
		c-0.071,0.002-0.143,0.004-0.216,0.007c-2.744,0.076-6.136-0.133-8.287-2.527c-1.777-2.233-2.192-4.236-2.192-7.364
		c2.647,0,5.294,0,8.021,0c0.046,1.181,0.046,1.181,0.092,2.386c0.252,0.88,0.252,0.88,0.738,1.363
		c0.668,0.275,1.435,0.219,2.066-0.164c0.369-0.446,0.454-1.041,0.461-1.655c0-0.083-0.001-0.167-0.001-0.254
		c0-0.091,0.001-0.183,0.002-0.276c0.001-0.304,0.001-0.607,0.001-0.911c0-0.218,0.001-0.437,0.002-0.655
		c0.003-0.591,0.003-1.183,0.004-1.775c0.001-0.619,0.003-1.238,0.006-1.856c0.004-1.171,0.007-2.343,0.009-3.514
		c0.003-1.583,0.008-3.167,0.013-4.75C67.125,6.973,67.129,4.479,67.135,1.985z"/>
	<path fill="#E0271C" d="M97.201,36.789c0.526,0.568,0.776,1.084,1.005,1.893c-0.271,0.115-0.542,0.228-0.813,0.341
		c-0.077,0.033-0.153,0.065-0.233,0.1c-0.073,0.03-0.147,0.061-0.224,0.093c-0.068,0.028-0.136,0.058-0.206,0.086
		c-0.184,0.063-0.184,0.063-0.461,0.063c-0.049-0.125-0.099-0.249-0.149-0.377c-0.206-0.434-0.372-0.607-0.772-0.76
		c-0.468-0.061-0.87-0.081-1.302,0.163c-0.247,0.231-0.247,0.231-0.3,0.611c0.007,0.367,0.007,0.367,0.199,0.591
		c0.431,0.328,0.883,0.427,1.374,0.56c1.135,0.304,2.149,0.697,2.823,1.934c0.355,0.819,0.369,1.797,0.187,2.688
		c-0.315,0.976-0.922,1.757-1.69,2.202c-1.122,0.587-2.579,0.535-3.713,0.03c-0.736-0.419-1.373-1.122-1.715-2.039
		c-0.104-0.377-0.104-0.377-0.104-0.831c0.252-0.077,0.503-0.152,0.755-0.228c0.071-0.021,0.142-0.043,0.215-0.065
		c0.36-0.106,0.686-0.191,1.059-0.162c0.019,0.061,0.036,0.121,0.055,0.184c0.189,0.55,0.37,0.874,0.823,1.109
		c0.594,0.184,1.2,0.174,1.772-0.086c0.217-0.162,0.217-0.162,0.301-0.411c0.054-0.389,0.054-0.389,0-0.796
		c-0.437-0.459-0.89-0.584-1.441-0.73c-2.161-0.625-2.161-0.625-2.728-1.625c-0.432-0.882-0.488-1.945-0.29-2.942
		c0.308-0.927,0.842-1.642,1.564-2.091C94.437,35.671,96.115,35.779,97.201,36.789z"/>
	<path fill="#E0271C" d="M84.376,36.183c2.1,0,4.198,0,6.361,0c0,0.712,0,1.425,0,2.159c-1.399,0-2.799,0-4.241,0
		c0,0.712,0,1.424,0,2.158c1.126,0,2.252,0,3.412,0c0,0.712,0,1.425,0,2.158c-1.126,0-2.252,0-3.412,0c0,0.75,0,1.5,0,2.272
		c1.4,0,2.8,0,4.241,0c0,0.75,0,1.5,0,2.272c-2.099,0-4.198,0-6.361,0C84.376,43.566,84.376,39.93,84.376,36.183z"/>
	<path fill="#E0271C" d="M64.737,36.183c0.852,0,1.704,0,2.582,0c0.604,2.357,1.208,4.716,1.813,7.073
		c0.022,0.087,0.044,0.174,0.067,0.264c0.044,0.172,0.088,0.344,0.132,0.515c0.118,0.463,0.237,0.924,0.357,1.386
		c0.025,0.099,0.051,0.198,0.078,0.301c0.05,0.191,0.1,0.383,0.15,0.574c0.169,0.655,0.169,0.655,0.169,0.908
		c-0.791,0-1.582,0-2.397,0c-0.076-0.312-0.152-0.623-0.231-0.944c-0.024-0.098-0.048-0.195-0.073-0.296
		c-0.019-0.078-0.037-0.155-0.057-0.235c-0.019-0.079-0.039-0.158-0.059-0.24c-0.042-0.216-0.042-0.216-0.042-0.557
		c-0.943,0-1.886,0-2.858,0c-0.091,0.563-0.091,0.563-0.185,1.137c-0.091,0.374-0.182,0.749-0.276,1.136c-0.639,0-1.278,0-1.937,0
		c0.066-0.572,0.137-1.019,0.279-1.556c0.019-0.071,0.038-0.143,0.057-0.216c0.062-0.234,0.124-0.47,0.187-0.704
		c0.044-0.166,0.088-0.332,0.131-0.498c0.116-0.438,0.231-0.875,0.348-1.313c0.116-0.436,0.231-0.871,0.346-1.308
		c0.045-0.171,0.09-0.343,0.136-0.515c0.033-0.126,0.033-0.126,0.067-0.254c0.066-0.251,0.133-0.502,0.2-0.754
		C64.065,38.788,64.403,37.486,64.737,36.183z M65.751,39.364c-0.273,1.124-0.547,2.249-0.83,3.408c0.578,0,1.156,0,1.752,0
		c-0.104-0.462-0.208-0.924-0.312-1.385c-0.043-0.196-0.043-0.196-0.088-0.396c-0.029-0.126-0.057-0.252-0.086-0.383
		c-0.026-0.116-0.052-0.232-0.079-0.352c-0.075-0.307-0.164-0.598-0.265-0.893C65.813,39.364,65.783,39.364,65.751,39.364z"/>
	<path fill="#DF271C" d="M55.333,36.183c0.761,0,1.521,0,2.305,0c0.547,2.399,1.095,4.799,1.66,7.271
		c0.493-1.889,0.493-1.889,0.95-3.788c0.023-0.102,0.047-0.204,0.072-0.31c0.072-0.314,0.145-0.63,0.217-0.944
		c0.05-0.219,0.101-0.437,0.151-0.655c0.121-0.524,0.242-1.05,0.362-1.574c0.608,0,1.217,0,1.844,0
		c-0.067,0.581-0.145,1.063-0.281,1.616c-0.019,0.078-0.038,0.156-0.058,0.236c-0.063,0.256-0.126,0.511-0.189,0.767
		c-0.044,0.181-0.088,0.36-0.133,0.54c-0.116,0.475-0.233,0.949-0.351,1.423c-0.141,0.569-0.281,1.14-0.42,1.709
		c-0.11,0.445-0.219,0.89-0.329,1.335c-0.278,1.13-0.551,2.261-0.82,3.395c-0.791,0-1.582,0-2.397,0
		c-0.337-1.37-0.674-2.739-1.01-4.109c-0.156-0.636-0.312-1.272-0.469-1.908c-0.151-0.613-0.302-1.227-0.452-1.841
		c-0.057-0.234-0.115-0.469-0.173-0.703c-0.081-0.327-0.161-0.655-0.241-0.983c-0.024-0.097-0.048-0.194-0.073-0.294
		c-0.022-0.09-0.043-0.179-0.066-0.271c-0.019-0.077-0.038-0.155-0.058-0.235C55.333,36.638,55.333,36.638,55.333,36.183z"/>
	<path fill="#DF281C" d="M75.894,36.183c0.761,0,1.521,0,2.305,0c0.312,1.022,0.312,1.022,0.436,1.558
		c0.027,0.119,0.055,0.238,0.084,0.36c0.028,0.126,0.058,0.252,0.087,0.381c0.03,0.131,0.061,0.263,0.092,0.398
		c0.063,0.275,0.127,0.552,0.19,0.828c0.097,0.423,0.195,0.846,0.293,1.27c0.062,0.268,0.124,0.537,0.186,0.806
		c0.029,0.126,0.059,0.253,0.089,0.384c0.027,0.117,0.054,0.234,0.081,0.356c0.023,0.103,0.048,0.206,0.072,0.313
		c0.051,0.277,0.051,0.277,0.051,0.731c0.061,0,0.121,0,0.185,0c0.012-0.149,0.012-0.149,0.023-0.303
		c0.081-0.688,0.26-1.348,0.421-2.012c0.034-0.146,0.069-0.293,0.104-0.439c0.092-0.384,0.184-0.768,0.276-1.15
		c0.094-0.393,0.188-0.784,0.281-1.177c0.184-0.769,0.368-1.536,0.553-2.304c0.608,0,1.217,0,1.845,0
		c-0.152,1.087-0.416,2.125-0.678,3.179c-0.049,0.197-0.097,0.395-0.146,0.592c-0.102,0.412-0.204,0.824-0.306,1.236
		c-0.131,0.525-0.261,1.052-0.391,1.578c-0.1,0.407-0.2,0.813-0.301,1.221c-0.049,0.194-0.097,0.388-0.144,0.582
		c-0.067,0.271-0.135,0.543-0.202,0.814c-0.02,0.079-0.039,0.158-0.06,0.239c-0.134,0.537-0.288,1.051-0.449,1.579
		c-0.761,0-1.521,0-2.305,0c-0.574-2.258-1.132-4.521-1.68-6.789c-0.105-0.435-0.21-0.868-0.315-1.302
		c-0.082-0.338-0.164-0.676-0.246-1.014c-0.039-0.161-0.078-0.321-0.116-0.481c-0.054-0.221-0.107-0.44-0.16-0.661
		c-0.03-0.125-0.061-0.25-0.092-0.379C75.894,36.296,75.894,36.296,75.894,36.183z"/>
	<path fill="#E0271C" d="M70.915,36.183c0.7,0,1.4,0,2.121,0c0,2.887,0,5.773,0,8.748c1.187,0,2.374,0,3.596,0c0,0.75,0,1.5,0,2.272
		c-1.887,0-3.773,0-5.717,0C70.915,43.566,70.915,39.93,70.915,36.183z"/>
	<path fill="#D32A27" d="M97.837,37.773c0.199,0.298,0.313,0.527,0.369,0.908c-0.122,0.038-0.243,0.076-0.369,0.114
		C97.733,38.156,97.733,38.156,97.837,37.773z"/>
</g>
</svg>
